<svg width="800" height="800" viewBox="0 0 800 800" fill="none" xmlns="http://www.w3.org/2000/svg">
<g clip-path="url(#clip0_201_16)">
<path d="M526.705 236C524.432 207.591 513.778 185.432 494.744 169.523C475.994 153.614 447.443 145.659 409.091 145.659C384.659 145.659 364.631 148.642 349.006 154.608C333.665 160.29 322.301 168.102 314.915 178.045C307.528 187.989 303.693 199.352 303.409 212.136C302.841 222.648 304.688 232.165 308.949 240.688C313.494 248.926 320.597 256.455 330.256 263.273C339.915 269.807 352.273 275.773 367.33 281.17C382.386 286.568 400.284 291.398 421.023 295.659L492.614 311C540.909 321.227 582.244 334.722 616.619 351.483C650.994 368.244 679.119 387.989 700.994 410.716C722.869 433.159 738.92 458.443 749.148 486.568C759.659 514.693 765.057 545.375 765.341 578.614C765.057 636 750.71 684.58 722.301 724.352C693.892 764.125 653.267 794.381 600.426 815.119C547.869 835.858 484.659 846.227 410.795 846.227C334.943 846.227 268.75 835.006 212.216 812.562C155.966 790.119 112.216 755.602 80.9659 709.011C50 662.136 34.375 602.193 34.0909 529.182H259.091C260.511 555.886 267.188 578.33 279.119 596.511C291.051 614.693 307.813 628.472 329.403 637.847C351.278 647.222 377.273 651.909 407.386 651.909C432.67 651.909 453.835 648.784 470.881 642.534C487.926 636.284 500.852 627.619 509.659 616.54C518.466 605.46 523.011 592.818 523.295 578.614C523.011 565.261 518.608 553.614 510.085 543.67C501.847 533.443 488.21 524.352 469.176 516.398C450.142 508.159 424.432 500.489 392.045 493.386L305.114 474.636C227.841 457.875 166.903 429.892 122.301 390.688C77.983 351.199 55.9659 297.364 56.25 229.182C55.9659 173.784 70.7386 125.347 100.568 83.8693C130.682 42.1079 172.301 9.5795 225.426 -13.7159C278.835 -37.0114 340.057 -48.6591 409.091 -48.6591C479.545 -48.6591 540.483 -36.8693 591.903 -13.2898C643.324 10.2898 682.955 43.5284 710.795 86.4261C738.92 129.04 753.125 178.898 753.409 236H526.705Z" fill="#EEEEEE"/>
<path d="M485.185 301.594C483.196 282.986 474.815 268.497 460.043 258.128C445.412 247.759 426.378 242.574 402.94 242.574C386.463 242.574 372.33 245.06 360.54 250.031C348.75 255.003 339.73 261.75 333.48 270.273C327.23 278.795 324.034 288.526 323.892 299.463C323.892 308.554 325.952 316.437 330.071 323.114C334.332 329.79 340.085 335.472 347.33 340.159C354.574 344.705 362.599 348.54 371.406 351.665C380.213 354.79 389.091 357.418 398.04 359.548L438.949 369.776C455.426 373.611 471.264 378.795 486.463 385.33C501.804 391.864 515.511 400.102 527.585 410.045C539.801 419.989 549.46 431.991 556.562 446.054C563.665 460.116 567.216 476.594 567.216 495.486C567.216 521.054 560.682 543.568 547.614 563.028C534.545 582.347 515.653 597.474 490.938 608.412C466.364 619.207 436.605 624.605 401.662 624.605C367.713 624.605 338.239 619.349 313.239 608.838C288.381 598.327 268.92 582.986 254.858 562.815C240.938 542.645 233.409 518.071 232.273 489.094H310.043C311.179 504.293 315.866 516.935 324.105 527.02C332.344 537.105 343.068 544.634 356.278 549.605C369.631 554.577 384.545 557.062 401.023 557.062C418.21 557.062 433.267 554.506 446.193 549.392C459.261 544.136 469.489 536.892 476.875 527.659C484.261 518.284 488.026 507.347 488.168 494.847C488.026 483.483 484.688 474.108 478.153 466.722C471.619 459.193 462.457 452.943 450.668 447.972C439.02 442.858 425.384 438.312 409.759 434.335L360.114 421.551C324.176 412.318 295.767 398.327 274.886 379.577C254.148 360.685 243.778 335.614 243.778 304.364C243.778 278.653 250.739 256.139 264.659 236.821C278.722 217.503 297.827 202.517 321.974 191.864C346.122 181.068 373.466 175.67 404.006 175.67C434.972 175.67 462.102 181.068 485.398 191.864C508.835 202.517 527.23 217.361 540.582 236.395C553.935 255.287 560.824 277.02 561.25 301.594H485.185Z" fill="black"/>
<rect x="12.5" y="12.5" width="775" height="775" rx="387.5" stroke="black" stroke-width="25"/>
</g>
<defs>
<clipPath id="clip0_201_16">
<rect width="800" height="800" rx="400" fill="white"/>
</clipPath>
</defs>
</svg>
